<?xml version="1.0"?>
<svg xmlns="http://www.w3.org/2000/svg" xmlns:xlink="http://www.w3.org/1999/xlink" xmlns:svgjs="http://svgjs.com/svgjs" version="1.1" width="512" height="512" x="0" y="0" viewBox="0 0 64 64" style="enable-background:new 0 0 512 512" xml:space="preserve" class=""><g><rect xmlns="http://www.w3.org/2000/svg" height="14" rx="1" width="14" x="15" y="20" fill="#fdd73f" data-original="#000000" style="" class=""/><path xmlns="http://www.w3.org/2000/svg" d="m43 45v-5h-2v5a1 1 0 0 1 -1 1h-5v2h5a1 1 0 0 1 1 1v5h2v-5a1 1 0 0 1 1-1h5v-2h-5a1 1 0 0 1 -1-1z" fill="#fdd73f" data-original="#000000" style="" class=""/><rect xmlns="http://www.w3.org/2000/svg" height="14" rx="1" width="14" x="15" y="40" fill="#fdd73f" data-original="#000000" style="" class=""/><rect xmlns="http://www.w3.org/2000/svg" height="14" rx="1" width="14" x="35" y="20" fill="#fdd73f" data-original="#000000" style="" class=""/><path xmlns="http://www.w3.org/2000/svg" d="m59.624 18.007a.859.859 0 0 0 .376-.716.874.874 0 0 0 -.562-.813l-27.438-12.378-27.382 12.354a.9.9 0 0 0 -.618.837.869.869 0 0 0 1.178.813l26.408-12.014a1 1 0 0 1 .828 0l26.432 12.023a.857.857 0 0 0 .778-.106z" fill="#fdd73f" data-original="#000000" style="" class=""/><path xmlns="http://www.w3.org/2000/svg" d="m55 19a.989.989 0 0 1 .086-.4l-23.086-10.5-23.086 10.5a.989.989 0 0 1 .086.4v38a3 3 0 0 0 3 3h40a3 3 0 0 0 3-3zm-24 34a3 3 0 0 1 -3 3h-12a3 3 0 0 1 -3-3v-12a3 3 0 0 1 3-3h12a3 3 0 0 1 3 3zm0-20a3 3 0 0 1 -3 3h-12a3 3 0 0 1 -3-3v-12a3 3 0 0 1 3-3h12a3 3 0 0 1 3 3zm20 16a1 1 0 0 1 -1 1h-5v5a1 1 0 0 1 -1 1h-4a1 1 0 0 1 -1-1v-5h-5a1 1 0 0 1 -1-1v-4a1 1 0 0 1 1-1h5v-5a1 1 0 0 1 1-1h4a1 1 0 0 1 1 1v5h5a1 1 0 0 1 1 1zm0-16a3 3 0 0 1 -3 3h-12a3 3 0 0 1 -3-3v-12a3 3 0 0 1 3-3h12a3 3 0 0 1 3 3z" fill="#fdd73f" data-original="#000000" style="" class=""/></g></svg>
