<?xml version="1.0"?>
<svg xmlns="http://www.w3.org/2000/svg" xmlns:xlink="http://www.w3.org/1999/xlink" xmlns:svgjs="http://svgjs.com/svgjs" version="1.1" width="512" height="512" x="0" y="0" viewBox="0 0 512.036 512.036" style="enable-background:new 0 0 512 512" xml:space="preserve" class=""><g>
<path xmlns="http://www.w3.org/2000/svg" style="" d="M503.485,196.551L268.818,25.885c-8.533-6.4-17.067-6.4-25.6,0L8.551,196.551  c-17.067,10.667-6.4,38.4,12.8,38.4h42.667v234.667c0,12.8,8.533,21.333,21.333,21.333h341.333c12.8,0,21.333-8.533,21.333-21.333  V234.951h42.667C509.885,234.951,520.551,207.218,503.485,196.551z" fill="#fdd73f" data-original="#ccf2fe" class=""/>
<linearGradient xmlns="http://www.w3.org/2000/svg" id="SVGID_1_" gradientUnits="userSpaceOnUse" x1="-38.9279" y1="605.1929" x2="-30.4426" y2="613.6782" gradientTransform="matrix(21.3333 0 0 -21.3333 995.9701 13321.5771)"><stop stop-opacity="1" stop-color="#42445a" offset="0"/><stop stop-opacity="1" stop-color="#f7f2b9" offset="0"/></linearGradient>
<circle xmlns="http://www.w3.org/2000/svg" style="fill:url(#SVGID_1_);" cx="256.018" cy="320.285" r="128" fill=""/>
<polygon xmlns="http://www.w3.org/2000/svg" style="" points="320.018,298.951 277.351,298.951 277.351,256.285 234.685,256.285 234.685,298.951   192.018,298.951 192.018,341.618 234.685,341.618 234.685,384.285 277.351,384.285 277.351,341.618 320.018,341.618 " fill="#3d3700" data-original="#ffffff" class=""/>
<g xmlns="http://www.w3.org/2000/svg">
</g>
<g xmlns="http://www.w3.org/2000/svg">
</g>
<g xmlns="http://www.w3.org/2000/svg">
</g>
<g xmlns="http://www.w3.org/2000/svg">
</g>
<g xmlns="http://www.w3.org/2000/svg">
</g>
<g xmlns="http://www.w3.org/2000/svg">
</g>
<g xmlns="http://www.w3.org/2000/svg">
</g>
<g xmlns="http://www.w3.org/2000/svg">
</g>
<g xmlns="http://www.w3.org/2000/svg">
</g>
<g xmlns="http://www.w3.org/2000/svg">
</g>
<g xmlns="http://www.w3.org/2000/svg">
</g>
<g xmlns="http://www.w3.org/2000/svg">
</g>
<g xmlns="http://www.w3.org/2000/svg">
</g>
<g xmlns="http://www.w3.org/2000/svg">
</g>
<g xmlns="http://www.w3.org/2000/svg">
</g>
</g></svg>
