<?xml version="1.0"?>
<svg xmlns="http://www.w3.org/2000/svg" xmlns:xlink="http://www.w3.org/1999/xlink" xmlns:svgjs="http://svgjs.com/svgjs" version="1.1" width="512" height="512" x="0" y="0" viewBox="0 0 512 512" style="enable-background:new 0 0 512 512" xml:space="preserve" class=""><g><g xmlns="http://www.w3.org/2000/svg"><g><path d="m138.217 512h-110.932c-15.069 0-27.285-12.216-27.285-27.285 0-45.702 37.049-82.751 82.751-82.751 45.702 0 82.751 37.049 82.751 82.751 0 15.069-12.216 27.285-27.285 27.285z" fill="#fd8087" data-original="#fd8087" style=""/><g><path d="m82.751 401.964c-9.97 0-19.527 1.765-28.378 4.996 2.626 21.882 21.241 38.847 43.83 38.847 16.881 0 31.544-9.476 38.976-23.395-14.55-12.722-33.581-20.448-54.428-20.448z" fill="#fe646f" data-original="#fe646f" style=""/><path d="m82.751 413.442c-24.389 0-44.16-19.771-44.16-44.16v-53.879c0-14.298 11.59-25.888 25.888-25.888h36.543c14.298 0 25.888 11.59 25.888 25.888v53.879c.001 24.389-19.77 44.16-44.159 44.16z" fill="#ffcebf" data-original="#ffcebf" style=""/><path d="m126.911 366.842v-27.286c-5.577 11.11-13.508 20.548-23.128 27.449-4.695 3.368-9.835 6.178-15.278 8.354-3.963 1.583-5.891 6.079-4.307 10.041 1.207 3.022 4.11 4.861 7.176 4.861.955 0 1.926-.178 2.865-.554 6.601-2.638 12.841-6.051 18.549-10.145 5.136-3.684 9.861-7.959 14.123-12.72z" fill="#7a6d79" data-original="#7a6d79" style=""/><path d="m101.023 289.515h-36.544c-14.298 0-25.888 11.59-25.888 25.888v32.939l37.422-12.328c13.8-4.546 28.926-2.46 40.979 5.653l9.918 6.675v-32.939c.001-14.297-11.59-25.888-25.887-25.888z" fill="#c59191" data-original="#c59191" style=""/></g></g><g><path d="m484.715 222.485h-110.932c-15.069 0-27.285-12.216-27.285-27.285 0-45.702 37.049-82.751 82.751-82.751 45.702 0 82.751 37.049 82.751 82.751 0 15.069-12.216 27.285-27.285 27.285z" fill="#fee97d" data-original="#fee97d" style=""/><g><path d="m429.249 112.449c-10.35 0-20.248 1.916-29.38 5.387 5.545 18.053 22.346 31.178 42.217 31.178 15.441 0 29.023-7.931 36.916-19.935-13.848-10.438-31.076-16.63-49.753-16.63z" fill="#fedf30" data-original="#fedf30" style=""/><path d="m429.249 123.927c-24.389 0-44.16-19.771-44.16-44.16v-53.879c0-14.298 11.591-25.888 25.888-25.888h36.543c14.298 0 25.888 11.59 25.888 25.888v53.879c.001 24.389-19.77 44.16-44.159 44.16z" fill="#ffcebf" data-original="#ffcebf" style=""/><path d="m447.521 0h-36.543c-14.298 0-25.888 11.591-25.888 25.888v32.939l37.422-12.328c13.8-4.546 28.926-2.46 40.98 5.653l9.918 6.675v-32.939c-.002-14.297-11.592-25.888-25.889-25.888z" fill="#c59191" data-original="#c59191" style=""/></g></g><g><path d="m491.396 448.129h-278.149c-11.379 0-20.604-9.225-20.604-20.604v-60.08c0-3.902-2.205-7.469-5.695-9.214l-15.997-7.998c-3.796-1.898-3.796-7.316 0-9.214l15.997-7.998c3.49-1.745 5.695-5.312 5.695-9.214v-13.722c0-11.379 9.225-20.604 20.604-20.604h278.149c11.379 0 20.604 9.225 20.604 20.604v117.441c0 11.378-9.225 20.603-20.604 20.603z" fill="#fdd73f" data-original="#7acaa6" style="" class=""/><path d="m491.396 289.481h-30.905c11.379 0 20.604 9.225 20.604 20.604v117.441c0 11.379-9.225 20.604-20.604 20.604h30.905c11.379 0 20.604-9.225 20.604-20.604v-117.441c0-11.38-9.225-20.604-20.604-20.604z" fill="#3d3700" data-original="#57be92" style="" class=""/><g fill="#fff"><path d="m263.721 332.186c-.026-.07-.054-.142-.083-.212-1.442-3.503-4.819-5.766-8.607-5.766-.004 0-.007 0-.011 0-3.792.004-7.169 2.275-8.605 5.785-.023.058-.046.116-.068.175l-26.187 68.758c-1.519 3.987.483 8.451 4.471 9.97 3.982 1.519 8.451-.482 9.97-4.471l4.627-12.148h31.409l4.576 12.127c1.167 3.094 4.108 5 7.229 5 .906 0 1.829-.161 2.727-.5 3.992-1.506 6.007-5.964 4.5-9.957zm-18.608 46.638 9.891-25.971 9.801 25.971z" fill="#ffffff" data-original="#ffffff" style="" class=""/><path d="m471.082 361.078h-153.162c-4.268 0-7.726 3.459-7.726 7.726s3.459 7.726 7.726 7.726h153.163c4.268 0 7.726-3.459 7.726-7.726s-3.459-7.726-7.727-7.726z" fill="#ffffff" data-original="#ffffff" style="" class=""/><path d="m317.92 341.661h153.163c4.268 0 7.726-3.459 7.726-7.726s-3.459-7.726-7.726-7.726h-153.163c-4.268 0-7.726 3.459-7.726 7.726s3.458 7.726 7.726 7.726z" fill="#ffffff" data-original="#ffffff" style="" class=""/><path d="m440.177 395.949h-122.257c-4.268 0-7.726 3.459-7.726 7.726s3.459 7.726 7.726 7.726h122.258c4.268 0 7.726-3.459 7.726-7.726s-3.459-7.726-7.727-7.726z" fill="#ffffff" data-original="#ffffff" style="" class=""/></g></g><path d="m20.604 158.648h278.149c11.379 0 20.604-9.225 20.604-20.604v-60.08c0-3.902 2.205-7.469 5.695-9.214l15.997-7.998c3.796-1.898 3.796-7.316 0-9.214l-15.997-7.998c-3.49-1.745-5.695-5.312-5.695-9.214v-13.722c-.001-11.379-9.225-20.604-20.604-20.604h-278.149c-11.379 0-20.604 9.225-20.604 20.604v117.441c0 11.378 9.225 20.603 20.604 20.603z" fill="#fdd73f" data-original="#7acaa6" style="" class=""/><path d="m341.047 51.538-15.996-7.998c-3.49-1.745-5.695-5.312-5.695-9.214v-13.722c0-11.379-9.224-20.604-20.603-20.604h-30.905c11.379 0 20.604 9.225 20.604 20.604v13.722c0 3.902 2.205 7.469 5.695 9.214l15.996 7.998c3.797 1.898 3.797 7.316 0 9.214l-15.996 7.998c-3.49 1.745-5.695 5.312-5.695 9.214v60.08c0 11.379-9.225 20.604-20.604 20.604h30.905c11.379 0 20.604-9.225 20.604-20.604v-60.08c0-3.902 2.205-7.469 5.695-9.214l15.996-7.998c3.796-1.898 3.796-7.316-.001-9.214z" fill="#3d3700" data-original="#57be92" style="" class=""/><g fill="#fff"><path d="m186.35 71.598h-145.432c-4.268 0-7.726 3.459-7.726 7.726s3.459 7.726 7.726 7.726h145.432c4.268 0 7.726-3.459 7.726-7.726s-3.458-7.726-7.726-7.726z" fill="#ffffff" data-original="#ffffff" style="" class=""/><path d="m186.35 36.727h-145.432c-4.268 0-7.726 3.459-7.726 7.726s3.459 7.726 7.726 7.726h145.432c4.268 0 7.726-3.459 7.726-7.726s-3.458-7.726-7.726-7.726z" fill="#ffffff" data-original="#ffffff" style="" class=""/><path d="m186.35 106.468h-114.527c-4.268 0-7.726 3.459-7.726 7.726 0 4.268 3.459 7.726 7.726 7.726h114.527c4.268 0 7.726-3.459 7.726-7.726s-3.458-7.726-7.726-7.726z" fill="#ffffff" data-original="#ffffff" style="" class=""/><path d="m293.377 108.45-5.305-5.306c4.606-6.804 7.299-15.003 7.299-23.82 0-23.488-19.109-42.597-42.597-42.597-23.487 0-42.596 19.109-42.596 42.597s19.109 42.597 42.596 42.597c9.1 0 17.535-2.878 24.464-7.757l5.212 5.212c1.509 1.509 3.486 2.264 5.464 2.264 1.977 0 3.955-.755 5.463-2.263 3.017-3.018 3.017-7.91 0-10.927zm-40.602-1.982c-14.967 0-27.143-12.177-27.143-27.144s12.176-27.144 27.143-27.144 27.144 12.177 27.144 27.144c0 4.534-1.123 8.808-3.097 12.569l-5.754-5.754c-3.017-3.018-7.909-3.017-10.927-.001-3.018 3.017-3.018 7.909-.001 10.927l5.918 5.918c-3.93 2.214-8.46 3.485-13.283 3.485z" fill="#ffffff" data-original="#ffffff" style="" class=""/></g></g></g></svg>
