<?xml version="1.0"?>
<svg xmlns="http://www.w3.org/2000/svg" xmlns:xlink="http://www.w3.org/1999/xlink" xmlns:svgjs="http://svgjs.com/svgjs" version="1.1" width="512" height="512" x="0" y="0" viewBox="0 0 256 256" style="enable-background:new 0 0 512 512" xml:space="preserve"><g><g xmlns="http://www.w3.org/2000/svg"><path d="m191.612 107.479 8.986 11.808c2.546 3.346.16 8.16-4.044 8.16l7.58 29.427 16.208 6.682c5.571 2.297 9.207 7.728 9.207 13.754v16.57c4.555 0 8.248 3.693 8.248 8.248 0 4.555-3.693 8.248-8.248 8.248h-203.654c-4.248 0-7.691-3.443-7.691-7.691v-1.338c0-4.248 3.443-7.691 7.691-7.691v-71.416c0-11.038 8.948-19.986 19.986-19.986h135.191c4.136.002 8.035 1.934 10.54 5.225z" fill="#cecece" data-original="#cecece" style=""/><g><path d="m229.547 193.88v-16.57c0-6.026-3.635-11.457-9.207-13.754l-16.208-6.682-7.58-29.427c4.205 0 6.591-4.814 4.044-8.161l-8.986-11.808c-2.505-3.291-6.403-5.223-10.539-5.223h-14.667c4.136 0 8.034 1.932 10.539 5.223l8.986 11.808c2.546 3.346.16 8.161-4.044 8.161l7.58 29.427 16.208 6.682c5.571 2.297 9.207 7.728 9.207 13.754v16.57c4.556 0 8.248 3.693 8.248 8.249 0 4.556-3.693 8.249-8.248 8.249h14.667c4.556 0 8.249-3.693 8.249-8.249 0-4.556-3.693-8.249-8.249-8.249z" fill="#e2e2e2" data-original="#e2e2e2" style=""/></g><g><path d="m32.871 202.686v-1.337c0-4.248 3.443-7.691 7.691-7.691v-71.416c0-11.038 8.948-19.986 19.986-19.986h-14.667c-11.038 0-19.986 8.948-19.986 19.986v71.416c-4.248 0-7.691 3.443-7.691 7.691v1.337c0 4.248 3.443 7.691 7.691 7.691h14.667c-4.248.001-7.691-3.443-7.691-7.691z" fill="#afafaf" data-original="#afafaf" style=""/></g><path d="m196.554 127.447 7.579 29.427h-28.832v-29.427z" fill="#f8af23" data-original="#f8af23" style=""/><g><path d="m196.554 127.447h-14.667l7.58 29.427h14.666z" fill="#f8d323" data-original="#f8d323" style=""/></g><circle cx="71.023" cy="205.473" fill="#707070" r="16.497" data-original="#707070" style=""/><circle cx="193.284" cy="205.473" fill="#707070" r="16.497" data-original="#707070" style=""/><circle cx="71.023" cy="205.473" fill="#3f3679" r="6.354" data-original="#3f3679" style=""/><circle cx="193.284" cy="205.473" fill="#3f3679" r="6.354" data-original="#3f3679" style=""/><g><path d="m67.49 60.377 2.137-2.161c3.221-3.256 5.027-7.651 5.027-12.23v-5.028h20.43 20.43v5.028c0 4.58 1.807 8.975 5.027 12.23l2.137 2.16c3.408 3.445 5.32 8.096 5.32 12.943v56.144c0 1.567-1.27 2.838-2.838 2.838h-30.075-30.078c-1.567 0-2.838-1.27-2.838-2.838v-56.144c.001-4.846 1.913-9.497 5.321-12.942z" fill="#cecece" data-original="#cecece" style=""/><g><path d="m67.49 60.377 2.138-2.16c3.221-3.256 5.027-7.651 5.027-12.231v-5.028h15.941v5.028c0 4.58-1.807 8.975-5.027 12.231l-2.137 2.16c-3.408 3.445-5.32 8.096-5.32 12.942v56.144c0 1.567 1.27 2.838 2.837 2.838h-15.942c-1.567 0-2.838-1.271-2.838-2.838v-56.144c.001-4.846 1.913-9.497 5.321-12.942z" fill="#afafaf" data-original="#afafaf" style=""/></g><path d="m72.512 40.958h45.146c1.716 0 3.106-1.391 3.106-3.106v-11.689c0-1.716-1.391-3.106-3.106-3.106h-45.146c-1.716 0-3.106 1.391-3.106 3.106v11.688c-.001 1.716 1.39 3.107 3.106 3.107z" fill="#63bce7" data-original="#63bce7" style=""/><g><path d="m72.782 23.057h15.941c-1.865 0-3.376 1.512-3.376 3.376v11.149c0 1.864 1.512 3.376 3.376 3.376h-15.941c-1.865 0-3.376-1.511-3.376-3.376v-11.149c-.001-1.864 1.511-3.376 3.376-3.376z" fill="#6377e7" data-original="#6377e7" style=""/></g><path d="m62.17 74.837h65.83v40.986h-65.83z" fill="#63bce7" transform="matrix(-1 0 0 -1 190.17 190.661)" data-original="#63bce7" style=""/><g><path d="m62.17 74.837h15.941v40.986h-15.941z" fill="#6377e7" data-original="#6377e7" style=""/></g><path d="m94.439 110.075h1.293c4.108 0 7.438-3.33 7.438-7.438v-14.797c0-4.108-3.33-7.438-7.438-7.438h-1.293c-4.108 0-7.438 3.33-7.438 7.438v14.797c-.001 4.108 3.33 7.438 7.438 7.438z" fill="#f46275" data-original="#f46275" style=""/><path d="m87 87.842c0-4.109 3.331-7.44 7.44-7.44h1.289c4.109 0 7.44 3.331 7.44 7.44v7.397h-16.169z" fill="#f8af23" data-original="#f8af23" style=""/></g><g fill="#3f3679"><path d="m27.323 231.443h-18.003c-.828 0-1.5.672-1.5 1.5s.672 1.5 1.5 1.5h18.003c.828 0 1.5-.672 1.5-1.5s-.672-1.5-1.5-1.5z" fill="#3f3679" data-original="#3f3679" style=""/><path d="m246.68 231.443h-18.003c-.828 0-1.5.672-1.5 1.5s.672 1.5 1.5 1.5h18.003c.828 0 1.5-.672 1.5-1.5s-.672-1.5-1.5-1.5z" fill="#3f3679" data-original="#3f3679" style=""/><path d="m218.479 231.443h-180.958c-.828 0-1.5.672-1.5 1.5s.672 1.5 1.5 1.5h180.959c.828 0 1.5-.672 1.5-1.5s-.672-1.5-1.501-1.5z" fill="#3f3679" data-original="#3f3679" style=""/><path d="m9.32 223.47h237.36c.828 0 1.5-.672 1.5-1.5s-.672-1.5-1.5-1.5h-43.468c3.104-2.062 5.52-5.063 6.871-8.592h19.466c5.375 0 9.748-4.373 9.748-9.749 0-4.865-3.582-8.909-8.248-9.633v-15.186c0-6.659-3.979-12.603-10.135-15.141l-15.514-6.396-6.979-27.092c1.733-.508 3.198-1.714 4.03-3.395 1.119-2.257.866-4.904-.66-6.908l-8.986-11.808c-2.771-3.642-7.157-5.815-11.732-5.815h-51.573v-25.917-1.519c0-5.275-2.043-10.246-5.754-13.997l-2.138-2.16c-2.962-2.995-4.594-6.964-4.594-11.176v-3.528h.644c2.54 0 4.606-2.066 4.606-4.606v-11.689c0-2.54-2.066-4.606-4.606-4.606h-45.146c-2.54 0-4.606 2.066-4.606 4.606v11.688c0 2.54 2.066 4.606 4.606 4.606h.644v3.528c0 4.212-1.632 8.181-4.595 11.176l-2.137 2.16c-3.71 3.75-5.754 8.721-5.754 13.997v1.519 25.918h-14.789c-11.847 0-21.485 9.639-21.485 21.486v33.132h-6.074c-.828 0-1.5.672-1.5 1.5s.672 1.5 1.5 1.5h6.074v33.905c-4.357.719-7.691 4.512-7.691 9.069v1.338c0 5.068 4.123 9.191 9.191 9.191h28.329c1.35 3.528 3.766 6.53 6.871 8.592h-51.776c-.828 0-1.5.672-1.5 1.5s.672 1.502 1.5 1.502zm71.63-3c3.104-2.062 5.52-5.063 6.871-8.592h88.666c1.35 3.528 3.766 6.53 6.871 8.592zm112.334 0c-8.27 0-14.997-6.728-14.997-14.997s6.728-14.996 14.997-14.996 14.997 6.728 14.997 14.996c0 8.269-6.727 14.997-14.997 14.997zm8.914-65.096h-25.397v-26.427h18.591zm-11.78-46.986 8.986 11.808c.843 1.107.978 2.513.359 3.76-.618 1.248-1.818 1.992-3.21 1.992h-21.253c-.828 0-1.5.672-1.5 1.5v29.427c0 .828.672 1.5 1.5 1.5h28.536l15.933 6.569c5.028 2.073 8.278 6.928 8.278 12.367v16.57c0 .828.672 1.5 1.5 1.5 3.721 0 6.748 3.027 6.748 6.748 0 3.722-3.027 6.749-6.748 6.749h-18.6c.212-1.104.333-2.24.333-3.405 0-9.923-8.073-17.996-17.997-17.996s-17.997 8.073-17.997 17.996c0 1.165.121 2.301.333 3.405h-25.825v-105.122h31.277c3.646 0 7.139 1.731 9.347 4.632zm-126.748-32.05h62.83v37.985h-62.83zm0 40.985h62.83v12.141c0 .737-.601 1.337-1.338 1.337h-60.155c-.737 0-1.337-.6-1.337-1.337zm7.235-79.471v-11.689c0-.886.721-1.606 1.606-1.606h45.146c.886 0 1.606.721 1.606 1.606v11.688c0 .886-.721 1.606-1.606 1.606h-2.144-40.858-2.144c-.885.001-1.606-.72-1.606-1.605zm-2.348 23.58 2.137-2.16c3.522-3.56 5.462-8.277 5.462-13.285v-3.528h37.859v3.528c0 5.007 1.939 9.726 5.461 13.285l2.138 2.16c3.151 3.186 4.887 7.407 4.887 11.888v.019h-62.831v-.019c0-4.482 1.735-8.704 4.887-11.888zm-42.661 147.446c-3.414 0-6.191-2.777-6.191-6.191v-1.338c0-3.414 2.777-6.191 6.191-6.191.828 0 1.5-.672 1.5-1.5v-35.283h100.604c.828 0 1.5-.672 1.5-1.5s-.672-1.5-1.5-1.5h-100.604v-33.132c0-10.193 8.293-18.486 18.485-18.486h14.789v12.067 13.641c0 2.392 1.945 4.337 4.337 4.337h60.155c2.392 0 4.338-1.945 4.338-4.337v-13.641-12.067h17.295v105.122h-58.108c.212-1.104.333-2.24.333-3.405 0-9.923-8.073-17.996-17.997-17.996s-17.997 8.073-17.997 17.996c0 1.165.121 2.301.333 3.405h-27.463zm30.129-3.405c0-8.269 6.728-14.996 14.997-14.996s14.997 6.728 14.997 14.996c0 8.27-6.728 14.997-14.997 14.997s-14.997-6.728-14.997-14.997z" fill="#3f3679" data-original="#3f3679" style=""/><path d="m95.731 78.902h-.002-1.289-.002c-4.929 0-8.938 4.01-8.938 8.938v.002 7.396 7.398c0 4.929 4.01 8.938 8.938 8.938h1.293c4.929 0 8.938-4.01 8.938-8.938v-7.398-7.396-.002c.001-4.928-4.009-8.938-8.938-8.938zm-.002 3c3.275 0 5.94 2.664 5.94 5.939v5.896h-13.169v-5.896c0-3.275 2.665-5.939 5.94-5.939zm.002 26.673h-1.293c-3.274 0-5.938-2.664-5.938-5.938v-5.898h13.17v5.898c0 3.274-2.664 5.938-5.939 5.938z" fill="#3f3679" data-original="#3f3679" style=""/><path d="m128 143.521h-85.667c-.828 0-1.5.672-1.5 1.5s.672 1.5 1.5 1.5h85.667c.828 0 1.5-.672 1.5-1.5s-.672-1.5-1.5-1.5z" fill="#3f3679" data-original="#3f3679" style=""/><path d="m129.5 168.727c0-.828-.672-1.5-1.5-1.5h-85.667c-.828 0-1.5.672-1.5 1.5s.672 1.5 1.5 1.5h85.667c.828 0 1.5-.672 1.5-1.5z" fill="#3f3679" data-original="#3f3679" style=""/></g></g></g></svg>
