<?xml version="1.0"?>
<svg xmlns="http://www.w3.org/2000/svg" xmlns:xlink="http://www.w3.org/1999/xlink" xmlns:svgjs="http://svgjs.com/svgjs" version="1.1" width="512" height="512" x="0" y="0" viewBox="0 0 64 64" style="enable-background:new 0 0 512 512" xml:space="preserve" class=""><g><g xmlns="http://www.w3.org/2000/svg"><g><path d="m1 61h62v2h-62z" fill="#fdd73f" data-original="#000000" style="" class=""/></g><g><circle cx="47" cy="53" r="2" fill="#fdd73f" data-original="#000000" style="" class=""/><path d="m47 47c-3.309 0-6 2.691-6 6s2.691 6 6 6 6-2.691 6-6-2.691-6-6-6zm0 10c-2.206 0-4-1.794-4-4s1.794-4 4-4 4 1.794 4 4-1.794 4-4 4z" fill="#fdd73f" data-original="#000000" style="" class=""/></g><g><circle cx="17" cy="53" r="2" fill="#fdd73f" data-original="#000000" style="" class=""/><path d="m17 47c-3.309 0-6 2.691-6 6s2.691 6 6 6 6-2.691 6-6-2.691-6-6-6zm0 10c-2.206 0-4-1.794-4-4s1.794-4 4-4 4 1.794 4 4-1.794 4-4 4z" fill="#fdd73f" data-original="#000000" style="" class=""/></g><path d="m3 43h2v4h-2z" fill="#fdd73f" data-original="#000000" style="" class=""/><path d="m51.512 29h-6.512v2h1c1.654 0 3 1.346 3 3v3h5.656l-2.187-7.287c-.127-.427-.512-.713-.957-.713z" fill="#fdd73f" data-original="#000000" style="" class=""/><path d="m59 44h2v2h-2z" fill="#fdd73f" data-original="#000000" style="" class=""/><path d="m56.523 28.245c-.727-1.941-2.608-3.245-4.681-3.245h-10.842v17c0 .553-.447 1-1 1h-33v5c0 .553-.447 1-1 1h-3v3h6.069c.495-3.94 3.859-7 7.931-7s7.436 3.06 7.931 7h14.139c.495-3.94 3.859-7 7.931-7s7.436 3.06 7.931 7h6.068v-4h-3c-.553 0-1-.447-1-1v-4c0-.553.447-1 1-1h3v-1.818zm.28 10.352c-.19.254-.487.403-.803.403h-12c-.553 0-1-.447-1-1v-10c0-.553.447-1 1-1h7.512c1.335 0 2.49.859 2.874 2.139l2.572 8.574c.091.303.033.631-.155.884z" fill="#fdd73f" data-original="#000000" style="" class=""/><path d="m46 33h-1v4h2v-3c0-.552-.448-1-1-1z" fill="#fdd73f" data-original="#000000" style="" class=""/><g><path d="m21 17c-5.514 0-10 4.486-10 10s4.486 10 10 10 10-4.486 10-10-4.486-10-10-10zm8 8v4c0 .553-.447 1-1 1h-4v4c0 .553-.447 1-1 1h-4c-.553 0-1-.447-1-1v-4h-4c-.553 0-1-.447-1-1v-4c0-.553.447-1 1-1h4v-4c0-.553.447-1 1-1h4c.553 0 1 .447 1 1v4h4c.553 0 1 .447 1 1z" fill="#fdd73f" data-original="#000000" style="" class=""/><path d="m22 25v-4h-2v4c0 .553-.447 1-1 1h-4v2h4c.553 0 1 .447 1 1v4h2v-4c0-.553.447-1 1-1h4v-2h-4c-.553 0-1-.447-1-1z" fill="#fdd73f" data-original="#000000" style="" class=""/><path d="m38 13h-34c-.552 0-1 .448-1 1v27h36v-16-2-9c0-.552-.448-1-1-1zm-17 26c-6.617 0-12-5.383-12-12s5.383-12 12-12 12 5.383 12 12-5.383 12-12 12z" fill="#fdd73f" data-original="#000000" style="" class=""/></g><path d="m45 9c.27 0 .533.054.783.16.352.147.756.086 1.043-.163.288-.248.411-.639.316-1.007-.097-.377-.142-.692-.142-.99 0-2.206 1.794-4 4-4 2.081 0 3.784 1.574 3.961 3.662.028.345.233.648.54.806.307.159.675.146.97-.032.483-.29.997-.436 1.529-.436 1.654 0 3 1.346 3 3s-1.346 3-3 3h-13c-1.103 0-2-.897-2-2s.897-2 2-2z" fill="#fdd73f" data-original="#000000" style="" class=""/></g></g></svg>
