<?xml version="1.0"?>
<svg xmlns="http://www.w3.org/2000/svg" xmlns:xlink="http://www.w3.org/1999/xlink" xmlns:svgjs="http://svgjs.com/svgjs" version="1.1" width="512" height="512" x="0" y="0" viewBox="0 0 512 512" style="enable-background:new 0 0 512 512" xml:space="preserve" class=""><g transform="matrix(1,0,0,1,0,0)"><g xmlns="http://www.w3.org/2000/svg"><path d="m31.346 378.942c18.843-18.915 44.9-30.638 73.644-30.638h107.72v88.696c0 25.094-8.934 48.141-23.788 66.127 21.695 5.886 44.127 8.873 67.078 8.873 68.38 0 132.667-26.629 181.02-74.98 45.274-45.276 71.825-104.524 74.98-168.02h-512c1.919 38.983 12.797 76.247 31.346 109.942z" fill="#fdd73f" data-original="#000000" style="" class=""/><path d="m409.568 17.575c11.333-11.333 26.401-17.575 42.429-17.575 16.027 0 31.095 6.242 42.428 17.575s17.575 26.401 17.575 42.428-6.242 31.096-17.574 42.429l-136.556 136.568h-169.567z" fill="#fdd73f" data-original="#000000" style="" class=""/><path d="m183.71 437v-59.696h-78.72c-41.421 0-75 33.579-75 75v59.696h78.72c41.421 0 75-33.579 75-75z" fill="#fdd73f" data-original="#000000" style="" class=""/></g></g></svg>
