<?xml version="1.0"?>
<svg xmlns="http://www.w3.org/2000/svg" xmlns:xlink="http://www.w3.org/1999/xlink" xmlns:svgjs="http://svgjs.com/svgjs" version="1.1" width="512" height="512" x="0" y="0" viewBox="0 0 512 512" style="enable-background:new 0 0 512 512" xml:space="preserve" class=""><g><g xmlns="http://www.w3.org/2000/svg"><g><path d="m459.507 10.938h-130.475c-27.698 0-50.152 22.454-50.152 50.152v65.123c0 27.698 22.454 50.152 50.152 50.152h65.565l31.386 35.864c9.309 10.637 26.83 4.053 26.83-10.082v-25.781h6.694c27.698 0 50.152-22.454 50.152-50.152v-65.125c0-27.698-22.454-50.151-50.152-50.151z" fill="#fdd73f" data-original="#9dc6fb" style="" class=""/><path d="m352.865 176.364h-23.833c-27.695 0-50.151-22.456-50.151-50.151v-65.126c0-27.695 22.456-50.151 50.151-50.151h23.833c-27.695 0-50.151 22.456-50.151 50.151v65.126c0 27.695 22.455 50.151 50.151 50.151z" fill="#f7f2b9" data-original="#80b4fb" style="" class=""/></g><g><path d="m63.984 237.548h166.462c35.337 0 63.984 28.647 63.984 63.984v83.085c0 35.337-28.647 63.984-63.984 63.984h-83.648l-40.042 45.755c-11.877 13.571-34.231 5.171-34.231-12.863v-32.892h-8.541c-35.337 0-63.984-28.647-63.984-63.984v-83.085c0-35.338 28.647-63.984 63.984-63.984z" fill="#fdd73f" data-original="#e27a66" style="" class=""/><path d="m105.994 495.185c-12.05 12.378-33.467 3.961-33.467-13.69v-32.895h-8.543c-35.335 0-63.984-28.649-63.984-63.983v-83.088c0-35.334 28.649-63.983 63.983-63.983h27.934c-35.343 0-63.983 28.649-63.983 63.983v83.088c0 35.334 28.641 63.983 63.983 63.983h8.543v32.896c.001 5.625 2.179 10.317 5.534 13.689z" fill="#f7f2b9" data-original="#dd636e" style="" class=""/></g><g><path d="m363.918 277.78h106.966c22.707 0 41.115 18.408 41.115 41.115v53.389c0 22.707-18.408 41.115-41.115 41.115h-53.751l-25.73 29.402c-7.632 8.721-21.996 3.323-21.996-8.266v-21.135h-5.488c-22.707 0-41.115-18.408-41.115-41.115v-53.389c-.001-22.708 18.407-41.116 41.114-41.116z" fill="#fdd73f" data-original="#ffe07d" style="" class=""/><path d="m390.913 443.334c-7.743 7.954-21.506 2.545-21.506-8.797v-21.138h-5.49c-22.705 0-41.115-18.41-41.115-41.115v-53.391c0-22.705 18.41-41.115 41.115-41.115h17.95c-22.711 0-41.115 18.409-41.115 41.115v53.391c0 22.705 18.404 41.115 41.115 41.115h5.49v21.138c.001 3.615 1.4 6.63 3.556 8.797z" fill="#f7f2b9" data-original="#ffd064" style="" class=""/></g><path d="m341.644 113.922h-184.535c-39.174 0-70.931 31.757-70.931 70.931v92.106c0 39.174 31.757 70.931 70.931 70.931h92.73l44.389 50.723c13.166 15.045 37.947 5.733 37.947-14.26v-36.463h9.468c39.174 0 70.931-31.757 70.931-70.931v-92.106c.001-39.174-31.756-70.931-70.93-70.931z" fill="#f9f6f9" data-original="#f9f6f9" style="" class=""/><path d="m190.815 347.888h-33.708c-39.17 0-70.93-31.76-70.93-70.93v-92.109c0-39.17 31.759-70.93 70.93-70.93h33.708c-39.17 0-70.93 31.76-70.93 70.93v92.109c0 39.171 31.76 70.93 70.93 70.93z" fill="#d0cee7" data-original="#d0cee7" style="" class=""/><g><path d="m154.536 10.937h-103.19c-21.906 0-39.664 17.758-39.664 39.664v51.504c0 21.906 17.758 39.664 39.664 39.664h51.854l24.822 28.364c7.363 8.413 21.22 3.206 21.22-7.974v-20.39h5.294c21.906 0 39.664-17.758 39.664-39.664v-51.504c0-21.906-17.758-39.664-39.664-39.664z" fill="#fdd73f" data-original="#b3e59f" style="" class=""/><path d="m70.195 141.769h-18.849c-21.904 0-39.663-17.76-39.663-39.663v-51.507c0-21.904 17.76-39.663 39.663-39.663h18.849c-21.904 0-39.663 17.76-39.663 39.663v51.506c-.001 21.904 17.759 39.664 39.663 39.664z" fill="#f7f2b9" data-original="#95d6a4" style="" class=""/></g><g fill="#5e54ac"><path d="m231.866 189.824c-.026-.071-.054-.142-.083-.212-1.496-3.637-5.025-6.023-8.94-5.982-3.934.004-7.439 2.359-8.929 6.001-.024.058-.047.117-.069.176l-31.987 83.984c-1.519 3.988.483 8.452 4.47 9.97 3.988 1.517 8.452-.483 9.971-4.47l6.071-15.94h40.728l6.008 15.918c1.167 3.094 4.108 5.001 7.229 5.001.906 0 1.829-.16 2.727-.5 3.992-1.507 6.007-5.965 4.5-9.957zm-23.611 58.073 14.572-38.26 14.439 38.26z" fill="#3d3700" data-original="#5e54ac" style="" class=""/><path d="m173.364 184.742h-34.273c-4.268 0-7.726 3.459-7.726 7.726v84.561c0 4.267 3.459 7.726 7.726 7.726s7.726-3.459 7.726-7.726v-35.355h23.824c4.268 0 7.726-3.459 7.726-7.726s-3.459-7.726-7.726-7.726h-23.824v-26.027h26.546c4.268 0 7.726-3.459 7.726-7.726s-3.457-7.727-7.725-7.727z" fill="#3d3700" data-original="#5e54ac" style="" class=""/><path d="m365.124 271.534-7.502-7.503c5.93-8.256 9.437-18.364 9.437-29.282 0-27.746-22.573-50.319-50.319-50.319s-50.319 22.573-50.319 50.319c0 27.745 22.573 50.318 50.319 50.318 11.263 0 21.674-3.72 30.068-9.996l7.389 7.389c1.509 1.509 3.486 2.263 5.464 2.263 1.977 0 3.955-.755 5.463-2.263 3.017-3.017 3.017-7.909 0-10.926zm-48.385-1.919c-19.225 0-34.866-15.641-34.866-34.866s15.641-34.866 34.866-34.866 34.866 15.641 34.866 34.866c0 6.646-1.871 12.863-5.112 18.154l-8.621-8.621c-3.017-3.018-7.909-3.018-10.927 0-3.018 3.017-3.018 7.909-.001 10.927l8.768 8.768c-5.463 3.56-11.978 5.638-18.973 5.638z" fill="#3d3700" data-original="#5e54ac" style="" class=""/></g></g></g></svg>
